<svg width="556" height="110" viewBox="0 0 556 110" fill="none" xmlns="http://www.w3.org/2000/svg">
<path fill-rule="evenodd" clip-rule="evenodd" d="M55.8948 23.0588H72.6396L87.6156 72C87.9694 73.0589 88.9128 73.8824 90.092 73.8824C91.2712 73.8824 92.2146 73.1765 92.5683 72.1176L107.662 23.1765H128.534L99.8795 108.471H82.6629L64.2672 51.2941L45.8714 108.471H28.6549L0 23.1765H20.8721L35.966 72.1176C36.3198 73.1765 37.2632 73.8824 38.4424 73.8824C39.6216 73.8824 40.565 73.1765 40.9188 72L55.8948 23.0588Z" fill="white"/>
<path fill-rule="evenodd" clip-rule="evenodd" d="M184.665 88.8237L178.179 108.353H200.702L207.188 88.8237H184.665Z" fill="url(#paint0_linear_9405_5179)"/>
<path fill-rule="evenodd" clip-rule="evenodd" d="M236.668 54.1177H256.243C256.243 49.2942 255.3 44.8236 253.531 40.8236C251.644 36.8236 249.168 33.2942 245.866 30.4707C242.565 27.5295 238.673 25.2942 234.074 23.7648C229.475 22.1177 224.405 21.4119 218.862 21.4119C213.556 21.4119 208.603 22.1177 204.122 23.5295C199.641 24.9413 195.868 26.9412 192.566 29.5295C189.264 32.1177 186.788 35.1765 184.901 38.8236C183.014 42.353 182.189 46.2353 182.189 50.353C182.189 56.1177 183.722 61.0589 186.67 65.0589C189.618 69.0589 193.391 72.4706 197.754 75.2942C202.235 78.1177 207.07 80.706 212.141 82.8236C217.329 85.0589 222.164 87.2942 226.527 89.6471C231.008 92.0001 234.664 94.7059 237.612 97.5295C240.56 100.471 242.093 104.118 242.093 108.471H261.668C261.668 102 260.135 96.353 257.187 91.7647C254.239 87.1765 250.465 83.1765 246.102 79.8824C241.621 76.5883 236.786 73.7648 231.716 71.4118C226.527 69.0589 221.692 66.8236 217.329 64.7059C212.848 62.5883 209.193 60.4706 206.245 58.2354C203.297 56.0001 201.764 53.4119 201.764 50.4707C201.764 47.5295 203.297 45.0589 206.363 43.0589C209.429 41.0589 213.202 40.1177 217.801 40.1177C223.461 40.1177 228.06 41.4119 231.48 44.0001C235.018 46.4707 236.668 49.8824 236.668 54.1177Z" fill="white"/>
<path d="M486.78 23.0588H467.205V108.353H486.78V23.0588Z" fill="white"/>
<path d="M162.142 23.0588H142.568V108.353H162.142V23.0588Z" fill="white"/>
<path fill-rule="evenodd" clip-rule="evenodd" d="M310.958 90.5882C304.355 90.5882 298.931 88.8235 294.685 85.2941C291.737 82.9412 289.615 79.8823 288.2 76.2353C287.728 75.0588 287.846 73.7647 288.553 72.5883C289.261 71.5294 290.44 70.9412 291.737 70.9412H354.471C354.707 69.7647 354.825 68.8235 354.943 68C355.061 67.1765 355.061 66.4706 355.061 65.6471C355.061 59.2941 354 53.2942 351.759 47.8824C349.519 42.4706 346.453 37.7648 342.561 33.7648C338.67 29.7648 333.953 26.7059 328.529 24.4706C323.104 22.2353 317.208 21.1765 310.841 21.1765C304.473 21.1765 298.577 22.2353 293.152 24.4706C287.728 26.7059 283.129 29.7648 279.12 33.7648C275.228 37.7648 272.162 42.4706 269.922 47.8824C267.681 53.2942 266.62 59.2941 266.62 65.6471C266.62 72.1176 267.681 78.1177 269.922 83.5294C272.162 88.9412 275.228 93.6471 279.12 97.5294C283.011 101.412 287.728 104.471 293.152 106.706C298.577 108.941 304.473 110 310.841 110C315.911 110 320.746 109.294 325.227 108C329.708 106.588 333.717 104.706 337.373 102.118C341.028 99.5294 344.094 96.4706 346.689 92.8236C349.047 89.5294 350.934 86 352.349 82H330.416C328.411 84.5883 325.935 86.5882 322.869 88C319.449 89.7647 315.439 90.5882 310.958 90.5882ZM334.307 56.8235H287.61C289.143 51.8824 291.973 48 295.982 45.0588C299.992 42.2353 305.062 40.8236 310.958 40.8236C316.737 40.8236 321.689 42.2353 325.699 45.0588C329.708 47.8824 332.656 51.8824 334.307 56.8235Z" fill="white"/>
<path fill-rule="evenodd" clip-rule="evenodd" d="M511.426 0H531.001V23.0588H556V41.2941H531.001V84.9411C531.001 87.7647 533.359 90.1176 536.189 90.1176H556V92V108.353H526.991C518.501 108.353 511.426 101.412 511.426 92.8235V43.8823C511.426 42.4706 510.246 41.2941 508.831 41.2941H500.813V23.0588H511.426V0Z" fill="white"/>
<path fill-rule="evenodd" clip-rule="evenodd" d="M434.423 97.1764V108.471H453.172V0H433.597V32.7058C431.121 29.8823 428.291 27.647 425.225 25.8823C419.447 22.7059 413.079 21.0588 405.768 21.0588C397.395 21.0588 389.966 22.9411 383.363 26.5882C376.759 30.2352 371.453 35.4118 367.679 42C363.906 48.5882 362.019 56.3529 362.019 65.2941C362.019 74.2353 363.906 81.9999 367.679 88.5882C371.453 95.1764 376.641 100.353 383.363 104C389.966 107.765 397.513 109.529 405.768 109.529C413.197 109.529 419.8 107.882 425.578 104.706C428.88 102.823 431.828 100.235 434.423 97.1764ZM408.126 38.2353C412.961 38.2353 417.324 39.2941 421.215 41.4118C425.107 43.5294 428.173 46.7058 430.413 50.7058C432.772 54.7058 433.951 59.5294 433.951 65.1765C433.951 70.7059 432.772 75.4117 430.413 79.5293C428.055 83.647 424.989 86.7058 421.215 88.9411C417.324 91.0587 413.079 92.1176 408.126 92.1176C403.291 92.1176 398.928 91.0587 395.037 88.9411C391.145 86.8234 388.079 83.647 385.839 79.5293C383.48 75.4117 382.301 70.5882 382.301 65.1765C382.301 59.5294 383.48 54.7058 385.839 50.7058C388.197 46.7058 391.263 43.5294 395.037 41.4118C398.928 39.4118 403.291 38.2353 408.126 38.2353Z" fill="white"/>
<defs>
<linearGradient id="paint0_linear_9405_5179" x1="178.205" y1="98.5624" x2="207.16" y2="98.5624" gradientUnits="userSpaceOnUse">
<stop stop-color="#A0ABF1"/>
<stop offset="1" stop-color="#0122DB"/>
</linearGradient>
</defs>
</svg>
