<svg width="557" height="110" viewBox="0 0 557 110" fill="none" xmlns="http://www.w3.org/2000/svg">
<path fill-rule="evenodd" clip-rule="evenodd" d="M55.9953 23.1516H72.7703L87.7733 72.0403C88.1277 73.098 89.0727 73.9207 90.2541 73.9207C91.4354 73.9207 92.3805 73.2155 92.7349 72.1579L107.856 23.2691H128.766L100.059 108.472H82.8117L64.3828 51.3566L45.954 108.472H28.7065L0 23.1516H20.9097L36.0307 72.0403C36.3851 73.098 37.3302 73.8031 38.5116 73.8031C39.6929 73.8031 40.638 73.098 40.9924 71.9228L55.9953 23.1516Z" fill="#0122DC"/>
<path fill-rule="evenodd" clip-rule="evenodd" d="M184.996 88.8459L178.499 108.354H201.063L207.56 88.8459H184.996Z" fill="url(#paint0_linear_9405_5168)"/>
<path fill-rule="evenodd" clip-rule="evenodd" d="M237.094 54.1772H256.704C256.704 49.3589 255.759 44.893 253.987 40.8973C252.097 36.9016 249.617 33.376 246.309 30.5555C243.001 27.6175 239.103 25.3845 234.495 23.8568C229.888 22.2115 224.808 21.5063 219.256 21.5063C213.94 21.5063 208.979 22.2115 204.489 23.6218C200 25.032 196.22 27.0299 192.912 29.6153C189.605 32.2008 187.124 35.2564 185.234 38.8995C183.344 42.4251 182.517 46.3033 182.517 50.4165C182.517 56.1751 184.052 61.1109 187.006 65.1067C189.959 69.1024 193.739 72.5105 198.11 75.331C202.599 78.1515 207.443 80.7369 212.523 82.8523C217.72 85.0852 222.564 87.3181 226.935 89.6685C231.424 92.0189 235.086 94.7219 238.039 97.5424C240.993 100.48 242.528 104.124 242.528 108.472H262.139C262.139 102.008 260.603 96.3672 257.65 91.7839C254.696 87.2006 250.916 83.2049 246.545 79.9143C242.056 76.6237 237.212 73.8032 232.133 71.4527C226.935 69.1023 222.091 66.8695 217.72 64.7541C213.231 62.6387 209.569 60.5234 206.616 58.2905C203.663 56.0576 202.127 53.4721 202.127 50.534C202.127 47.596 203.663 45.1281 206.734 43.1302C209.805 41.1324 213.586 40.1922 218.193 40.1922C223.863 40.1922 228.471 41.4849 231.896 44.0704C235.44 46.5383 237.094 49.9465 237.094 54.1772Z" fill="#0122DC"/>
<path d="M487.656 23.1516H468.045V108.354H487.656V23.1516Z" fill="#0122DC"/>
<path d="M162.434 23.1516H142.824V108.354H162.434V23.1516Z" fill="#0122DC"/>
<path fill-rule="evenodd" clip-rule="evenodd" d="M311.517 90.6086C304.902 90.6086 299.468 88.8458 295.215 85.3202C292.262 82.9697 290.135 79.9142 288.718 76.271C288.245 75.0958 288.363 73.803 289.072 72.6278C289.781 71.5702 290.962 70.9826 292.262 70.9826H355.109C355.345 69.8074 355.463 68.8672 355.581 68.0446C355.699 67.2219 355.699 66.5168 355.699 65.6941C355.699 59.348 354.636 53.3544 352.392 47.9484C350.147 42.5425 347.076 37.8416 343.177 33.8459C339.279 29.8502 334.553 26.7947 329.119 24.5618C323.685 22.3289 317.778 21.2712 311.399 21.2712C305.02 21.2712 299.113 22.3289 293.679 24.5618C288.245 26.7947 283.638 29.8502 279.621 33.8459C275.723 37.8416 272.651 42.5425 270.407 47.9484C268.162 53.3544 267.099 59.348 267.099 65.6941C267.099 72.1578 268.162 78.1514 270.407 83.5573C272.651 88.9633 275.723 93.6641 279.621 97.5423C283.52 101.42 288.245 104.476 293.679 106.709C299.113 108.942 305.02 110 311.399 110C316.479 110 321.322 109.294 325.812 108.002C330.301 106.591 334.317 104.711 337.979 102.126C341.641 99.5402 344.713 96.4846 347.312 92.8415C349.675 89.5509 351.565 86.0252 352.982 82.0295H331.009C329.001 84.615 326.52 86.6129 323.449 88.0231C320.023 89.6684 316.006 90.6086 311.517 90.6086ZM334.908 56.8801H288.127C289.663 51.9442 292.498 48.066 296.514 45.128C300.531 42.3075 305.611 40.8972 311.517 40.8972C317.306 40.8972 322.268 42.3075 326.284 45.128C330.301 47.9485 333.254 51.8267 334.908 56.8801Z" fill="#0122DC"/>
<path fill-rule="evenodd" clip-rule="evenodd" d="M512.345 0H531.955V23.1516H557V41.3674H531.955V84.9676C531.955 87.7881 534.318 90.1386 537.153 90.1386H557V92.0189V108.354H527.939C519.433 108.354 512.345 101.421 512.345 92.8416V43.9529C512.345 42.5426 511.164 41.3674 509.746 41.3674H501.713V23.1516H512.345V0Z" fill="#0122DC"/>
<path fill-rule="evenodd" clip-rule="evenodd" d="M435.204 97.1897V108.472H453.988V0.117432H434.377V32.7882C431.897 29.9677 429.061 27.7349 425.99 25.972C420.201 22.799 413.822 21.1536 406.498 21.1536C398.11 21.1536 390.668 23.034 384.053 26.6771C377.437 30.3203 372.121 35.4912 368.341 42.0724C364.561 48.6535 362.67 56.41 362.67 65.3416C362.67 74.2732 364.561 82.0295 368.341 88.6107C372.121 95.1919 377.319 100.363 384.053 104.006C390.668 107.767 398.229 109.529 406.498 109.529C413.94 109.529 420.556 107.884 426.344 104.711C429.652 102.713 432.605 100.245 435.204 97.1897ZM408.861 38.3117C413.704 38.3117 418.075 39.3694 421.973 41.4847C425.872 43.6001 428.943 46.7732 431.188 50.7689C433.551 54.7646 434.732 59.583 434.732 65.224C434.732 70.7475 433.551 75.4483 431.188 79.5616C428.825 83.6748 425.754 86.7303 421.973 88.9632C418.075 91.0786 413.822 92.1363 408.861 92.1363C404.017 92.1363 399.646 91.0786 395.748 88.9632C391.849 86.8479 388.778 83.6748 386.533 79.5616C384.171 75.4483 382.989 70.63 382.989 65.224C382.989 59.583 384.171 54.7646 386.533 50.7689C388.896 46.7732 391.968 43.6001 395.748 41.4847C399.646 39.3694 404.017 38.3117 408.861 38.3117Z" fill="#0122DC"/>
<defs>
<linearGradient id="paint0_linear_9405_5168" x1="178.525" y1="98.5539" x2="207.532" y2="98.5539" gradientUnits="userSpaceOnUse">
<stop stop-color="#A0ABF1"/>
<stop offset="1" stop-color="#0122DB"/>
</linearGradient>
</defs>
</svg>
